<svg width="398" height="90" viewBox="0 0 398 90" fill="none" xmlns="http://www.w3.org/2000/svg">
<g clip-path="url(#clip0_201_19)">
<path d="M386.299 0C381.284 0 376.747 3.26549 375.234 8.04425L349.285 87.9292H373.802L397.443 15.2124C399.831 7.72566 394.259 0 386.299 0Z" fill="white"/>
<path d="M216.592 1.7522H139.698L132.693 23.3363H186.423L117.251 70.0088C111.918 73.5929 110.883 81 115.022 85.8584C118.604 90.0796 124.733 90.9557 129.27 87.8495L199.08 40.6991L183.876 88.0088H208.393L230.283 20.6283C233.308 11.3097 226.382 1.7522 216.592 1.7522Z" fill="#00C7B1"/>
<path d="M28.0192 1.7522L0 88.0088H24.5168L45.5312 23.3363H95.5996L61.5308 46.354C56.5956 49.6991 54.924 56.469 58.1876 61.4071C61.5308 66.5044 68.2968 67.7787 73.232 64.4336L115.738 35.761C130.942 25.4867 123.698 1.7522 105.39 1.83184L28.0192 1.7522Z" fill="white"/>
<path d="M336.628 1.83191H259.257L231.238 88.0089H255.755L276.769 23.3363H326.838L282.58 53.2832L310.042 86.0177C313.624 90.239 319.753 91.1151 324.29 88.0089C329.624 84.4248 330.658 77.0177 326.519 72.1593L314.42 57.7434L347.056 35.7611C362.18 25.4868 354.936 1.83191 336.628 1.83191Z" fill="white"/>
</g>
<defs>
<clipPath id="clip0_201_19">
<rect width="398" height="90" fill="white"/>
</clipPath>
</defs>
</svg>
