<svg width="406" height="150" viewBox="0 0 406 150" fill="none" xmlns="http://www.w3.org/2000/svg">
<g clip-path="url(#clip0_201_16)">
<path d="M116.948 19.1831H20.9189L27.8369 0H123.866L116.948 19.1831ZM113.489 28.7746H17.4167L10.4988 47.9577H106.528L113.489 28.7746ZM103.112 57.462H7.03987L0.121948 76.6451H96.0648L103.112 57.462Z" fill="#009FDF"/>
<path d="M345.758 124.646H363.053C365.511 124.942 368.004 124.624 370.311 123.719C372.619 122.814 374.67 121.351 376.284 119.458C378.656 116.328 379.851 112.45 379.656 108.515C379.819 106.011 379.362 103.506 378.329 101.223C377.295 98.9404 375.716 96.9519 373.733 95.4358C370.522 93.3177 366.705 92.3361 362.88 92.6455H345.758V124.646ZM323.059 143.96V28.7746H397.383L390.855 48.0885H345.758V73.5933H364.134C378.964 73.5933 386.661 77.1683 391.979 81.7461C395.781 85.1411 398.771 89.3602 400.726 94.087C402.68 98.8137 403.548 103.925 403.264 109.038C403.556 114.544 402.479 120.037 400.13 125.016C397.782 129.996 394.237 134.305 389.817 137.551C382.683 142.521 375.203 143.917 359.983 143.917L323.059 143.96ZM257.252 143.96V48.0449H224.219V28.7746H315.925L309.396 48.0885H280.168V144.004L257.252 143.96ZM165.72 74.9012H178.691C181.344 75.0839 184.009 74.8783 186.603 74.2908C189.301 73.4217 191.626 71.6541 193.198 69.2777C194.769 66.9012 195.493 64.0571 195.25 61.2115C195.61 58.3839 194.929 55.5214 193.335 53.1669C191.741 50.8124 189.346 49.1295 186.603 48.4373C183.77 47.7742 180.86 47.5101 177.956 47.6525H165.72V74.9012ZM165.72 94.8254V125.039H181.544C185.906 125.541 190.29 124.323 193.78 121.638C195.389 120.135 196.649 118.294 197.471 116.244C198.293 114.194 198.657 111.987 198.537 109.779C198.605 106.252 197.544 102.797 195.51 99.9264C192.137 95.5666 187.987 94.7382 180.896 94.7382L165.72 94.8254ZM202.298 82.6616V83.054C206.153 84.5504 209.755 86.6387 212.978 89.2449C216.235 91.9705 218.809 95.4317 220.492 99.3478C222.174 103.264 222.918 107.525 222.663 111.785C222.663 127.524 214.361 138.903 200.742 142.304C195.313 143.642 189.721 144.185 184.139 143.917H143.02V28.7746H179.599C185.408 28.5605 191.221 29.1027 196.893 30.3878C210.124 33.9628 218.815 43.1619 218.815 57.68C218.923 61.1414 218.331 64.5887 217.074 67.8118C215.818 71.0349 213.924 73.9662 211.508 76.4271C208.941 79.0545 205.885 81.1437 202.514 82.5744L202.298 82.6616Z" fill="#0A2973"/>
</g>
<defs>
<clipPath id="clip0_201_16">
<rect width="406" height="150" fill="white"/>
</clipPath>
</defs>
</svg>
